<svg width="24" height="24" viewBox="0 0 24 24" fill="none" xmlns="http://www.w3.org/2000/svg">
<g id="vaadin:alarm" clip-path="url(#clip0_68_1125)">
<path id="Vector" d="M12 7.50001H10.5V15H16.5V13.5L12.105 13.605L12 7.50001ZM8.18998 1.30501C7.71884 0.663828 7.02252 0.224691 6.24091 0.0758258C5.4593 -0.0730393 4.65031 0.0793968 3.97648 0.502508L2.48998 1.65001C1.90928 2.19057 1.55454 2.93077 1.49694 3.72203C1.43935 4.51329 1.68318 5.29706 2.17948 5.91601L8.18998 1.30501ZM21.51 1.65001L20.01 0.495008C19.3383 0.0764439 18.5336 -0.0735655 17.7562 0.0748968C16.9789 0.223359 16.2861 0.659382 15.816 1.29601L21.81 5.91001C22.2405 5.37601 22.5 4.69051 22.5 3.94201C22.5 3.03901 22.119 2.22451 21.51 1.65001Z" fill="#5E6367"/>
<path id="Vector_2" d="M19.305 21C20.3117 20.0274 21.1131 18.8628 21.6619 17.5751C22.2106 16.2874 22.4956 14.9028 22.5 13.503C22.4812 10.7245 21.3696 8.06513 19.4056 6.09972C17.4416 4.13431 14.7829 3.02082 12.0045 3C9.22579 3.01845 6.56599 4.12986 4.60025 6.09391C2.63452 8.05796 1.52083 10.7168 1.5 13.4955C1.50338 14.8958 1.78762 16.2812 2.33589 17.5697C2.88417 18.8582 3.68534 20.0236 4.692 20.997L3.285 22.41C3.15312 22.5923 3.09064 22.8157 3.10879 23.04C3.12695 23.2643 3.22454 23.4748 3.38402 23.6335C3.5435 23.7923 3.75439 23.8889 3.97877 23.9061C4.20314 23.9232 4.42627 23.8597 4.608 23.727L6.105 22.2285C7.743 23.3655 9.774 24.045 11.9625 24.045C14.151 24.045 16.182 23.3655 17.8545 22.206L19.32 23.7285C19.5023 23.8604 19.7257 23.9229 19.95 23.9047C20.1743 23.8866 20.3848 23.789 20.5435 23.6295C20.7023 23.47 20.7989 23.2591 20.8161 23.0347C20.8332 22.8104 20.7697 22.5872 20.637 22.4055L19.305 21ZM4.305 13.5C4.32453 11.466 5.14091 9.52074 6.57882 8.08198C8.01673 6.64323 9.9615 5.82572 11.9955 5.805C14.0303 5.82336 15.9767 6.63922 17.4164 8.07725C18.8561 9.51529 19.6743 11.4607 19.695 13.4955C19.6766 15.5303 18.8608 17.4767 17.4227 18.9164C15.9847 20.3561 14.0393 21.1743 12.0045 21.195C9.9697 21.1766 8.02331 20.3608 6.58359 18.9227C5.14387 17.4847 4.32574 15.5393 4.305 13.5045V13.5Z" fill="#5E6367"/>
</g>
<defs>
<clipPath id="clip0_68_1125">
<rect width="24" height="24" fill="white"/>
</clipPath>
</defs>
</svg>
