<svg width="25" height="24" viewBox="0 0 25 24" fill="none" xmlns="http://www.w3.org/2000/svg">
<g id="material-symbols:alarm-outline">
<path id="Vector" d="M12.5 22C11.25 22 10.0793 21.7626 8.98798 21.288C7.89664 20.8133 6.94664 20.1716 6.13798 19.363C5.32931 18.5543 4.68764 17.6043 4.21298 16.513C3.73831 15.4216 3.50064 14.2506 3.49998 13C3.49931 11.7493 3.73698 10.5786 4.21298 9.48798C4.68898 8.39731 5.33031 7.44731 6.13698 6.63798C6.94364 5.82864 7.89364 5.18698 8.98698 4.71298C10.0803 4.23898 11.2513 4.00131 12.5 3.99998C13.7486 3.99864 14.9196 4.23631 16.013 4.71298C17.1063 5.18964 18.0563 5.83131 18.863 6.63798C19.6696 7.44464 20.3113 8.39464 20.788 9.48798C21.2646 10.5813 21.502 11.752 21.5 13C21.498 14.248 21.2606 15.419 20.788 16.513C20.3153 17.607 19.6736 18.557 18.863 19.363C18.0523 20.169 17.1023 20.8106 16.013 21.288C14.9236 21.7653 13.7526 22.0026 12.5 22ZM15.3 17.2L16.7 15.8L13.5 12.6V7.99998H11.5V13.4L15.3 17.2ZM6.09998 2.34998L7.49998 3.74998L3.24998 7.99998L1.84998 6.59998L6.09998 2.34998ZM18.9 2.34998L23.15 6.59998L21.75 7.99998L17.5 3.74998L18.9 2.34998ZM12.5 20C14.45 20 16.1043 19.321 17.463 17.963C18.8216 16.605 19.5006 14.9506 19.5 13C19.4993 11.0493 18.8203 9.39531 17.463 8.03798C16.1056 6.68064 14.4513 6.00131 12.5 5.99998C10.5486 5.99864 8.89464 6.67798 7.53798 8.03798C6.18131 9.39798 5.50198 11.052 5.49998 13C5.49798 14.948 6.17731 16.6023 7.53798 17.963C8.89864 19.3236 10.5526 20.0026 12.5 20Z" fill="#5E6367"/>
</g>
</svg>
