<svg width="25" height="24" viewBox="0 0 25 24" fill="none" xmlns="http://www.w3.org/2000/svg">
<g id="ion:calendar">
<path id="Vector" d="M23 6.00005C23 5.2044 22.6839 4.44134 22.1213 3.87873C21.5587 3.31612 20.7956 3.00005 20 3.00005H19.25V2.27115C19.25 1.86755 18.9397 1.52115 18.5361 1.50099C18.4347 1.49611 18.3333 1.51186 18.2382 1.5473C18.1431 1.58274 18.0561 1.63712 17.9826 1.70716C17.9091 1.77719 17.8506 1.86142 17.8106 1.95474C17.7706 2.04806 17.75 2.14853 17.75 2.25005V3.00005H7.25V2.27115C7.25 1.86755 6.93969 1.52115 6.53609 1.50099C6.43469 1.49611 6.33334 1.51186 6.2382 1.5473C6.14307 1.58274 6.05611 1.63712 5.98261 1.70716C5.90911 1.77719 5.8506 1.86142 5.81062 1.95474C5.77063 2.04806 5.75001 2.14853 5.75 2.25005V3.00005H5C4.20435 3.00005 3.44129 3.31612 2.87868 3.87873C2.31607 4.44134 2 5.2044 2 6.00005V6.56255C2 6.61228 2.01975 6.65997 2.05492 6.69514C2.09008 6.7303 2.13777 6.75005 2.1875 6.75005H22.8125C22.8622 6.75005 22.9099 6.7303 22.9451 6.69514C22.9802 6.65997 23 6.61228 23 6.56255V6.00005ZM2 19.5001C2 20.2957 2.31607 21.0588 2.87868 21.6214C3.44129 22.184 4.20435 22.5001 5 22.5001H20C20.7956 22.5001 21.5587 22.184 22.1213 21.6214C22.6839 21.0588 23 20.2957 23 19.5001V8.39068C23 8.35338 22.9852 8.31761 22.9588 8.29124C22.9324 8.26487 22.8967 8.25005 22.8594 8.25005H2.14062C2.10333 8.25005 2.06756 8.26487 2.04119 8.29124C2.01482 8.31761 2 8.35338 2 8.39068V19.5001ZM18.125 9.75005C18.3475 9.75005 18.565 9.81603 18.75 9.93965C18.935 10.0633 19.0792 10.239 19.1644 10.4445C19.2495 10.6501 19.2718 10.8763 19.2284 11.0945C19.185 11.3128 19.0778 11.5132 18.9205 11.6705C18.7632 11.8279 18.5627 11.935 18.3445 11.9784C18.1262 12.0218 17.9 11.9996 17.6945 11.9144C17.4889 11.8293 17.3132 11.6851 17.1896 11.5001C17.066 11.3151 17 11.0976 17 10.8751C17 10.5767 17.1185 10.2905 17.3295 10.0796C17.5405 9.86858 17.8266 9.75005 18.125 9.75005ZM18.125 13.5001C18.3475 13.5001 18.565 13.566 18.75 13.6897C18.935 13.8133 19.0792 13.989 19.1644 14.1945C19.2495 14.4001 19.2718 14.6263 19.2284 14.8445C19.185 15.0628 19.0778 15.2632 18.9205 15.4205C18.7632 15.5779 18.5627 15.685 18.3445 15.7284C18.1262 15.7718 17.9 15.7496 17.6945 15.6644C17.4889 15.5793 17.3132 15.4351 17.1896 15.2501C17.066 15.0651 17 14.8476 17 14.6251C17 14.3267 17.1185 14.0405 17.3295 13.8296C17.5405 13.6186 17.8266 13.5001 18.125 13.5001ZM14.375 9.75005C14.5975 9.75005 14.815 9.81603 15 9.93965C15.185 10.0633 15.3292 10.239 15.4144 10.4445C15.4995 10.6501 15.5218 10.8763 15.4784 11.0945C15.435 11.3128 15.3278 11.5132 15.1705 11.6705C15.0132 11.8279 14.8127 11.935 14.5945 11.9784C14.3762 12.0218 14.15 11.9996 13.9445 11.9144C13.7389 11.8293 13.5632 11.6851 13.4396 11.5001C13.316 11.3151 13.25 11.0976 13.25 10.8751C13.25 10.5767 13.3685 10.2905 13.5795 10.0796C13.7905 9.86858 14.0766 9.75005 14.375 9.75005ZM14.375 13.5001C14.5975 13.5001 14.815 13.566 15 13.6897C15.185 13.8133 15.3292 13.989 15.4144 14.1945C15.4995 14.4001 15.5218 14.6263 15.4784 14.8445C15.435 15.0628 15.3278 15.2632 15.1705 15.4205C15.0132 15.5779 14.8127 15.685 14.5945 15.7284C14.3762 15.7718 14.15 15.7496 13.9445 15.6644C13.7389 15.5793 13.5632 15.4351 13.4396 15.2501C13.316 15.0651 13.25 14.8476 13.25 14.6251C13.25 14.3267 13.3685 14.0405 13.5795 13.8296C13.7905 13.6186 14.0766 13.5001 14.375 13.5001ZM14.375 17.2501C14.5975 17.2501 14.815 17.316 15 17.4397C15.185 17.5633 15.3292 17.739 15.4144 17.9445C15.4995 18.1501 15.5218 18.3763 15.4784 18.5945C15.435 18.8128 15.3278 19.0132 15.1705 19.1705C15.0132 19.3279 14.8127 19.435 14.5945 19.4784C14.3762 19.5218 14.15 19.4996 13.9445 19.4144C13.7389 19.3293 13.5632 19.1851 13.4396 19.0001C13.316 18.8151 13.25 18.5976 13.25 18.3751C13.25 18.0767 13.3685 17.7905 13.5795 17.5796C13.7905 17.3686 14.0766 17.2501 14.375 17.2501ZM10.625 13.5001C10.8475 13.5001 11.065 13.566 11.25 13.6897C11.435 13.8133 11.5792 13.989 11.6644 14.1945C11.7495 14.4001 11.7718 14.6263 11.7284 14.8445C11.685 15.0628 11.5778 15.2632 11.4205 15.4205C11.2632 15.5779 11.0627 15.685 10.8445 15.7284C10.6262 15.7718 10.4 15.7496 10.1945 15.6644C9.98891 15.5793 9.81321 15.4351 9.6896 15.2501C9.56598 15.0651 9.5 14.8476 9.5 14.6251C9.5 14.3267 9.61853 14.0405 9.8295 13.8296C10.0405 13.6186 10.3266 13.5001 10.625 13.5001ZM10.625 17.2501C10.8475 17.2501 11.065 17.316 11.25 17.4397C11.435 17.5633 11.5792 17.739 11.6644 17.9445C11.7495 18.1501 11.7718 18.3763 11.7284 18.5945C11.685 18.8128 11.5778 19.0132 11.4205 19.1705C11.2632 19.3279 11.0627 19.435 10.8445 19.4784C10.6262 19.5218 10.4 19.4996 10.1945 19.4144C9.98891 19.3293 9.81321 19.1851 9.6896 19.0001C9.56598 18.8151 9.5 18.5976 9.5 18.3751C9.5 18.0767 9.61853 17.7905 9.8295 17.5796C10.0405 17.3686 10.3266 17.2501 10.625 17.2501ZM6.875 13.5001C7.0975 13.5001 7.31501 13.566 7.50002 13.6897C7.68502 13.8133 7.82922 13.989 7.91436 14.1945C7.99951 14.4001 8.02179 14.6263 7.97838 14.8445C7.93498 15.0628 7.82783 15.2632 7.6705 15.4205C7.51316 15.5779 7.31271 15.685 7.09448 15.7284C6.87625 15.7718 6.65005 15.7496 6.44448 15.6644C6.23891 15.5793 6.06321 15.4351 5.9396 15.2501C5.81598 15.0651 5.75 14.8476 5.75 14.6251C5.75 14.3267 5.86853 14.0405 6.0795 13.8296C6.29048 13.6186 6.57663 13.5001 6.875 13.5001ZM6.875 17.2501C7.0975 17.2501 7.31501 17.316 7.50002 17.4397C7.68502 17.5633 7.82922 17.739 7.91436 17.9445C7.99951 18.1501 8.02179 18.3763 7.97838 18.5945C7.93498 18.8128 7.82783 19.0132 7.6705 19.1705C7.51316 19.3279 7.31271 19.435 7.09448 19.4784C6.87625 19.5218 6.65005 19.4996 6.44448 19.4144C6.23891 19.3293 6.06321 19.1851 5.9396 19.0001C5.81598 18.8151 5.75 18.5976 5.75 18.3751C5.75 18.0767 5.86853 17.7905 6.0795 17.5796C6.29048 17.3686 6.57663 17.2501 6.875 17.2501Z" fill="#D93025"/>
</g>
</svg>
