<svg width="25" height="24" viewBox="0 0 25 24" fill="none" xmlns="http://www.w3.org/2000/svg">
<g id="material-symbols:alarm">
<path id="Vector" d="M12.5001 22C11.2501 22 10.0794 21.7626 8.9881 21.288C7.89676 20.8133 6.94676 20.1716 6.1381 19.363C5.32943 18.5543 4.68776 17.6043 4.2131 16.513C3.73843 15.4216 3.50076 14.2506 3.5001 13C3.49943 11.7493 3.7371 10.5786 4.2131 9.48798C4.6891 8.39731 5.33043 7.44731 6.1371 6.63798C6.94376 5.82864 7.89376 5.18698 8.9871 4.71298C10.0804 4.23898 11.2514 4.00131 12.5001 3.99998C13.7488 3.99864 14.9198 4.23631 16.0131 4.71298C17.1064 5.18964 18.0564 5.83131 18.8631 6.63798C19.6698 7.44464 20.3114 8.39464 20.7881 9.48798C21.2648 10.5813 21.5021 11.752 21.5001 13C21.4981 14.248 21.2608 15.419 20.7881 16.513C20.3154 17.607 19.6738 18.557 18.8631 19.363C18.0524 20.169 17.1024 20.8106 16.0131 21.288C14.9238 21.7653 13.7528 22.0026 12.5001 22ZM15.3001 17.2L16.7001 15.8L13.5001 12.6V7.99998H11.5001V13.4L15.3001 17.2ZM6.1001 2.34998L7.5001 3.74998L3.2501 7.99998L1.8501 6.59998L6.1001 2.34998ZM18.9001 2.34998L23.1501 6.59998L21.7501 7.99998L17.5001 3.74998L18.9001 2.34998Z" fill="#D93025"/>
</g>
</svg>
